<?xml version="1.0" standalone="no"?>
<!DOCTYPE svg PUBLIC "-//W3C//DTD SVG 20010904//EN"
 "http://www.w3.org/TR/2001/REC-SVG-20010904/DTD/svg10.dtd">
<svg version="1.0" xmlns="http://www.w3.org/2000/svg"
 width="512.000000pt" height="512.000000pt" viewBox="0 0 512.000000 512.000000"
 preserveAspectRatio="xMidYMid meet">

<g transform="translate(0.000000,512.000000) scale(0.100000,-0.100000)"
fill="#000000" stroke="none">
<path d="M1366 3713 c62 -86 134 -231 165 -331 l23 -72 48 47 c27 27 71 80 98
118 l48 71 -28 71 c-32 80 -75 152 -93 158 -7 2 -80 5 -162 7 l-151 3 52 -72z"/>
<path d="M990 3193 c-70 -6 -76 -10 -54 -35 31 -35 161 -115 222 -138 31 -11
65 -24 75 -28 16 -6 10 -17 -43 -77 -64 -73 -146 -225 -174 -322 l-15 -52 72
55 c54 41 92 61 154 80 63 19 93 35 131 69 55 50 77 93 91 187 8 48 16 67 33
78 13 8 46 37 73 63 l50 49 -50 -5 c-81 -8 -213 11 -323 48 -102 34 -126 37
-242 28z"/>
<path d="M3145 2654 c-204 -28 -298 -54 -410 -113 -140 -72 -239 -207 -251
-342 -13 -139 38 -292 127 -381 65 -65 187 -123 310 -148 52 -11 187 -28 300
-40 292 -28 373 -46 440 -96 42 -31 58 -59 59 -102 1 -122 -320 -181 -577
-106 -152 44 -228 95 -291 194 -19 30 -36 56 -37 58 -1 1 -53 -13 -116 -32
-63 -19 -142 -42 -176 -51 -35 -10 -63 -19 -63 -22 0 -2 16 -36 36 -76 165
-327 415 -467 833 -467 292 0 520 70 670 207 l61 55 0 -126 0 -126 210 0 210
0 0 830 0 830 -210 0 -210 0 0 -120 c0 -66 -1 -120 -2 -120 -2 0 -37 33 -78
73 -112 107 -245 170 -430 203 -84 14 -346 26 -405 18z m296 -388 c37 -8 90
-27 119 -41 69 -35 156 -118 186 -177 28 -55 8 -57 184 21 63 28 118 51 122
51 4 0 8 -79 8 -176 l0 -176 -50 45 c-136 122 -300 170 -695 202 -194 15 -263
28 -325 60 -52 26 -70 45 -70 75 0 58 63 99 188 120 78 13 263 11 333 -4z"/>
<path d="M1144 2575 c-3 -14 1 -66 10 -114 9 -49 16 -115 16 -147 l0 -59 38
38 c51 52 49 92 -11 215 -41 84 -47 91 -53 67z"/>
<path d="M3505 860 c-15 -16 -15 -20 -3 -20 8 0 23 9 33 20 15 16 15 20 3 20
-8 0 -23 -9 -33 -20z"/>
<path d="M2283 816 c-38 -17 -53 -43 -53 -89 0 -73 73 -115 143 -82 61 29 75
95 30 145 -33 36 -76 45 -120 26z m92 -41 c30 -30 31 -54 4 -89 -40 -50 -119
-21 -119 44 0 64 70 91 115 45z"/>
<path d="M3005 821 c-32 -13 -55 -45 -62 -83 -4 -29 0 -41 25 -69 26 -29 37
-34 75 -34 78 0 121 62 91 133 -9 21 -25 38 -48 47 -39 17 -52 17 -81 6z m83
-37 c16 -11 22 -25 22 -54 0 -29 -6 -43 -22 -54 -34 -24 -73 -20 -97 10 -27
35 -26 59 4 89 28 29 61 32 93 9z"/>
<path d="M4083 816 c-37 -17 -53 -43 -53 -88 0 -69 61 -110 131 -89 24 7 38
17 36 24 -3 7 -11 10 -18 8 -8 -2 -28 -6 -46 -9 -64 -8 -98 71 -50 116 26 24
66 29 85 10 8 -8 15 -9 22 -2 28 28 -58 52 -107 30z"/>
<path d="M4355 817 c-43 -20 -58 -42 -58 -88 0 -58 37 -94 98 -94 35 0 50 6
72 28 76 76 -13 198 -112 154z m86 -35 c45 -37 17 -122 -40 -122 -45 0 -71 26
-71 70 0 63 61 91 111 52z"/>
<path d="M750 730 c0 -73 3 -90 15 -90 9 0 15 9 15 25 0 22 4 25 38 25 53 0
82 23 82 65 0 50 -21 65 -91 65 l-59 0 0 -90z m110 56 c6 -8 10 -25 8 -38 -2
-19 -10 -23 -45 -26 l-43 -3 0 40 c0 40 1 41 34 41 18 0 39 -7 46 -14z"/>
<path d="M1051 798 c-5 -13 -23 -53 -40 -90 -23 -51 -27 -68 -16 -68 8 0 19 9
25 20 9 16 21 20 61 20 42 0 52 -3 56 -20 3 -11 14 -20 24 -20 16 0 13 11 -23
90 -43 95 -69 114 -87 68z m44 -38 c24 -47 20 -60 -21 -60 -20 0 -34 3 -32 8
2 4 10 24 18 45 8 20 15 37 17 37 1 0 9 -13 18 -30z"/>
<path d="M1280 730 c0 -73 3 -90 15 -90 9 0 15 9 15 25 0 21 5 25 29 25 20 0
34 -8 45 -25 9 -14 23 -25 31 -25 19 0 19 9 -1 31 -15 17 -15 20 5 45 47 59
13 104 -79 104 l-60 0 0 -90z m114 54 c19 -18 19 -20 6 -45 -8 -14 -21 -19
-50 -19 -40 0 -40 0 -40 40 0 39 1 40 34 40 19 0 42 -7 50 -16z"/>
<path d="M1520 810 c0 -5 16 -10 35 -10 l35 0 0 -80 c0 -64 3 -80 15 -80 12 0
15 16 15 80 l0 80 30 0 c17 0 30 5 30 10 0 6 -33 10 -80 10 -47 0 -80 -4 -80
-10z"/>
<path d="M1780 730 c0 -83 1 -90 20 -90 19 0 20 7 20 90 0 83 -1 90 -20 90
-19 0 -20 -7 -20 -90z"/>
<path d="M1940 730 l0 -90 64 0 c54 0 70 4 93 24 39 34 39 98 0 132 -23 20
-39 24 -93 24 l-64 0 0 -90z m131 52 c15 -13 22 -30 22 -52 0 -43 -32 -70 -84
-70 l-39 0 0 70 0 70 39 0 c23 0 48 -8 62 -18z"/>
<path d="M2690 730 c0 -73 3 -90 15 -90 9 0 15 9 15 24 0 20 6 24 45 28 57 7
75 22 75 63 0 47 -26 65 -93 65 l-57 0 0 -90z m104 57 c11 -8 17 -23 14 -38
-3 -21 -9 -24 -45 -27 l-43 -3 0 40 c0 38 2 41 28 41 16 0 36 -6 46 -13z"/>
<path d="M3260 730 l0 -90 65 0 c37 0 65 4 65 10 0 6 -22 10 -50 10 l-50 0 0
80 c0 64 -3 80 -15 80 -12 0 -15 -17 -15 -90z"/>
<path d="M3490 730 c0 -73 3 -90 15 -90 12 0 15 17 15 90 0 73 -3 90 -15 90
-12 0 -15 -17 -15 -90z"/>
<path d="M3620 810 c0 -5 16 -10 35 -10 l35 0 0 -80 c0 -64 3 -80 15 -80 12 0
15 16 15 80 l0 80 30 0 c17 0 30 5 30 10 0 6 -33 10 -80 10 -47 0 -80 -4 -80
-10z"/>
<path d="M3880 730 c0 -83 1 -90 20 -90 19 0 20 7 20 90 0 83 -1 90 -20 90
-19 0 -20 -7 -20 -90z"/>
</g>
</svg>
